<mxfile host="app.diagrams.net" agent="Mozilla/5.0 (Windows NT 10.0; Win64; x64) AppleWebKit/537.36 (KHTML, like Gecko) Chrome/137.0.0.0 Safari/537.36" version="27.1.4">
  <diagram name="Страница — 1" id="ZIdEtJP5ol2AYq0NX8Cg">
    <mxGraphModel dx="1226" dy="661" grid="1" gridSize="10" guides="1" tooltips="1" connect="1" arrows="1" fold="1" page="1" pageScale="1" pageWidth="1169" pageHeight="827" math="0" shadow="0">
      <root>
        <mxCell id="0" />
        <mxCell id="1" parent="0" />
        <mxCell id="iD19RxIG-7md3nA6UZsq-10" style="edgeStyle=orthogonalEdgeStyle;rounded=0;orthogonalLoop=1;jettySize=auto;html=1;strokeWidth=1;flowAnimation=0;exitX=1;exitY=0.25;exitDx=0;exitDy=0;entryX=-0.001;entryY=0.573;entryDx=0;entryDy=0;entryPerimeter=0;" parent="1" source="iD19RxIG-7md3nA6UZsq-1" target="iD19RxIG-7md3nA6UZsq-9" edge="1">
          <mxGeometry relative="1" as="geometry">
            <mxPoint x="450" y="284" as="targetPoint" />
            <Array as="points">
              <mxPoint x="240" y="374" />
              <mxPoint x="350" y="374" />
              <mxPoint x="350" y="294" />
            </Array>
          </mxGeometry>
        </mxCell>
        <mxCell id="iD19RxIG-7md3nA6UZsq-11" style="edgeStyle=orthogonalEdgeStyle;rounded=0;orthogonalLoop=1;jettySize=auto;html=1;entryX=0.023;entryY=0.247;entryDx=0;entryDy=0;entryPerimeter=0;" parent="1" target="iD19RxIG-7md3nA6UZsq-4" edge="1">
          <mxGeometry relative="1" as="geometry">
            <mxPoint x="240" y="394" as="sourcePoint" />
            <mxPoint x="339.9999999999999" y="395.00999999999993" as="targetPoint" />
            <Array as="points">
              <mxPoint x="240" y="411" />
            </Array>
          </mxGeometry>
        </mxCell>
        <mxCell id="iD19RxIG-7md3nA6UZsq-15" style="edgeStyle=orthogonalEdgeStyle;rounded=0;orthogonalLoop=1;jettySize=auto;html=1;entryX=0;entryY=0.25;entryDx=0;entryDy=0;" parent="1" source="iD19RxIG-7md3nA6UZsq-1" target="iD19RxIG-7md3nA6UZsq-13" edge="1">
          <mxGeometry relative="1" as="geometry">
            <Array as="points">
              <mxPoint x="310" y="424" />
              <mxPoint x="310" y="591" />
            </Array>
          </mxGeometry>
        </mxCell>
        <mxCell id="iD19RxIG-7md3nA6UZsq-17" style="edgeStyle=orthogonalEdgeStyle;rounded=0;orthogonalLoop=1;jettySize=auto;html=1;exitX=0.996;exitY=0.279;exitDx=0;exitDy=0;exitPerimeter=0;entryX=0.008;entryY=0.57;entryDx=0;entryDy=0;entryPerimeter=0;" parent="1" source="iD19RxIG-7md3nA6UZsq-1" target="iD19RxIG-7md3nA6UZsq-16" edge="1">
          <mxGeometry relative="1" as="geometry">
            <mxPoint x="240" y="314" as="sourcePoint" />
            <mxPoint x="440" y="354" as="targetPoint" />
            <Array as="points">
              <mxPoint x="600" y="384" />
              <mxPoint x="600" y="294" />
            </Array>
          </mxGeometry>
        </mxCell>
        <mxCell id="iD19RxIG-7md3nA6UZsq-1" value="Зарегистрированный пользователь" style="html=1;dashed=0;whiteSpace=wrap;" parent="1" vertex="1">
          <mxGeometry x="100" y="364" width="140" height="70" as="geometry" />
        </mxCell>
        <mxCell id="iD19RxIG-7md3nA6UZsq-40" style="edgeStyle=orthogonalEdgeStyle;rounded=0;orthogonalLoop=1;jettySize=auto;html=1;entryX=1;entryY=0.5;entryDx=0;entryDy=0;exitX=0;exitY=0.173;exitDx=0;exitDy=0;exitPerimeter=0;" parent="1" source="iD19RxIG-7md3nA6UZsq-2" target="iD19RxIG-7md3nA6UZsq-4" edge="1">
          <mxGeometry relative="1" as="geometry">
            <Array as="points">
              <mxPoint x="600" y="456" />
              <mxPoint x="600" y="429" />
            </Array>
          </mxGeometry>
        </mxCell>
        <mxCell id="iD19RxIG-7md3nA6UZsq-45" style="edgeStyle=orthogonalEdgeStyle;rounded=0;orthogonalLoop=1;jettySize=auto;html=1;entryX=1;entryY=0.5;entryDx=0;entryDy=0;" parent="1" source="iD19RxIG-7md3nA6UZsq-2" target="iD19RxIG-7md3nA6UZsq-13" edge="1">
          <mxGeometry relative="1" as="geometry">
            <Array as="points">
              <mxPoint x="600" y="479" />
              <mxPoint x="600" y="609" />
            </Array>
          </mxGeometry>
        </mxCell>
        <mxCell id="iD19RxIG-7md3nA6UZsq-46" style="edgeStyle=orthogonalEdgeStyle;rounded=0;orthogonalLoop=1;jettySize=auto;html=1;entryX=1;entryY=0.5;entryDx=0;entryDy=0;" parent="1" source="iD19RxIG-7md3nA6UZsq-2" target="iD19RxIG-7md3nA6UZsq-25" edge="1">
          <mxGeometry relative="1" as="geometry">
            <Array as="points">
              <mxPoint x="940" y="389" />
            </Array>
          </mxGeometry>
        </mxCell>
        <mxCell id="iD19RxIG-7md3nA6UZsq-48" style="edgeStyle=orthogonalEdgeStyle;rounded=0;orthogonalLoop=1;jettySize=auto;html=1;entryX=0.5;entryY=1;entryDx=0;entryDy=0;" parent="1" source="iD19RxIG-7md3nA6UZsq-2" target="iD19RxIG-7md3nA6UZsq-26" edge="1">
          <mxGeometry relative="1" as="geometry" />
        </mxCell>
        <mxCell id="iD19RxIG-7md3nA6UZsq-51" style="edgeStyle=orthogonalEdgeStyle;rounded=0;orthogonalLoop=1;jettySize=auto;html=1;entryX=1;entryY=0.5;entryDx=0;entryDy=0;" parent="1" source="iD19RxIG-7md3nA6UZsq-2" target="iD19RxIG-7md3nA6UZsq-7" edge="1">
          <mxGeometry relative="1" as="geometry">
            <Array as="points">
              <mxPoint x="995" y="549" />
            </Array>
          </mxGeometry>
        </mxCell>
        <mxCell id="iD19RxIG-7md3nA6UZsq-2" value="Админимтратор" style="html=1;dashed=0;whiteSpace=wrap;" parent="1" vertex="1">
          <mxGeometry x="930" y="444" width="140" height="70" as="geometry" />
        </mxCell>
        <mxCell id="iD19RxIG-7md3nA6UZsq-12" style="edgeStyle=orthogonalEdgeStyle;rounded=0;orthogonalLoop=1;jettySize=auto;html=1;entryX=0;entryY=0.75;entryDx=0;entryDy=0;exitX=1;exitY=0.25;exitDx=0;exitDy=0;" parent="1" source="iD19RxIG-7md3nA6UZsq-3" target="iD19RxIG-7md3nA6UZsq-4" edge="1">
          <mxGeometry relative="1" as="geometry" />
        </mxCell>
        <mxCell id="iD19RxIG-7md3nA6UZsq-14" style="edgeStyle=orthogonalEdgeStyle;rounded=0;orthogonalLoop=1;jettySize=auto;html=1;entryX=0;entryY=0.5;entryDx=0;entryDy=0;" parent="1" source="iD19RxIG-7md3nA6UZsq-3" target="iD19RxIG-7md3nA6UZsq-13" edge="1">
          <mxGeometry relative="1" as="geometry" />
        </mxCell>
        <mxCell id="iD19RxIG-7md3nA6UZsq-3" value="Гость" style="html=1;dashed=0;whiteSpace=wrap;" parent="1" vertex="1">
          <mxGeometry x="100" y="504" width="140" height="70" as="geometry" />
        </mxCell>
        <mxCell id="iD19RxIG-7md3nA6UZsq-4" value="Просмотр блогов" style="rounded=1;whiteSpace=wrap;html=1;" parent="1" vertex="1">
          <mxGeometry x="450" y="394" width="140" height="70" as="geometry" />
        </mxCell>
        <mxCell id="iD19RxIG-7md3nA6UZsq-7" value="Создание, редактирование, удаление блога" style="rounded=1;whiteSpace=wrap;html=1;" parent="1" vertex="1">
          <mxGeometry x="750" y="514" width="140" height="70" as="geometry" />
        </mxCell>
        <mxCell id="iD19RxIG-7md3nA6UZsq-9" value="Добавление комментария и оценки" style="rounded=1;whiteSpace=wrap;html=1;" parent="1" vertex="1">
          <mxGeometry x="450" y="254" width="140" height="70" as="geometry" />
        </mxCell>
        <mxCell id="iD19RxIG-7md3nA6UZsq-13" value="Просмотр вопроса" style="rounded=1;whiteSpace=wrap;html=1;" parent="1" vertex="1">
          <mxGeometry x="340" y="574" width="140" height="70" as="geometry" />
        </mxCell>
        <mxCell id="iD19RxIG-7md3nA6UZsq-16" value="Создание вопроса, ответа на него" style="rounded=1;whiteSpace=wrap;html=1;" parent="1" vertex="1">
          <mxGeometry x="620" y="254" width="140" height="70" as="geometry" />
        </mxCell>
        <mxCell id="DcRuyUyVqODYVJJy-fKT-2" style="edgeStyle=orthogonalEdgeStyle;rounded=0;orthogonalLoop=1;jettySize=auto;html=1;entryX=0.5;entryY=1;entryDx=0;entryDy=0;" edge="1" parent="1" source="iD19RxIG-7md3nA6UZsq-19" target="iD19RxIG-7md3nA6UZsq-4">
          <mxGeometry relative="1" as="geometry" />
        </mxCell>
        <mxCell id="iD19RxIG-7md3nA6UZsq-19" value="1" style="html=1;dashed=0;whiteSpace=wrap;shape=mxgraph.dfd.dataStoreID;align=left;spacingLeft=3;points=[[0,0],[0.5,0],[1,0],[0,0.5],[1,0.5],[0,1],[0.5,1],[1,1]];" parent="1" vertex="1">
          <mxGeometry x="465" y="524" width="110" height="30" as="geometry" />
        </mxCell>
        <mxCell id="iD19RxIG-7md3nA6UZsq-21" value="blog_id" style="text;html=1;align=center;verticalAlign=middle;whiteSpace=wrap;rounded=0;" parent="1" vertex="1">
          <mxGeometry x="495" y="524" width="60" height="30" as="geometry" />
        </mxCell>
        <mxCell id="iD19RxIG-7md3nA6UZsq-22" value="2" style="html=1;dashed=0;whiteSpace=wrap;shape=mxgraph.dfd.dataStoreID;align=left;spacingLeft=3;points=[[0,0],[0.5,0],[1,0],[0,0.5],[1,0.5],[0,1],[0.5,1],[1,1]];" parent="1" vertex="1">
          <mxGeometry x="350" y="664" width="110" height="30" as="geometry" />
        </mxCell>
        <mxCell id="iD19RxIG-7md3nA6UZsq-23" value="question_id" style="text;html=1;align=center;verticalAlign=middle;whiteSpace=wrap;rounded=0;" parent="1" vertex="1">
          <mxGeometry x="390" y="664" width="60" height="30" as="geometry" />
        </mxCell>
        <mxCell id="iD19RxIG-7md3nA6UZsq-25" value="Модерация комментариев в блоге" style="rounded=1;whiteSpace=wrap;html=1;" parent="1" vertex="1">
          <mxGeometry x="750" y="354" width="140" height="70" as="geometry" />
        </mxCell>
        <mxCell id="iD19RxIG-7md3nA6UZsq-26" value="Модерация вопросов, ответов на них" style="rounded=1;whiteSpace=wrap;html=1;" parent="1" vertex="1">
          <mxGeometry x="930" y="284" width="140" height="70" as="geometry" />
        </mxCell>
        <mxCell id="iD19RxIG-7md3nA6UZsq-32" style="edgeStyle=orthogonalEdgeStyle;rounded=0;orthogonalLoop=1;jettySize=auto;html=1;entryX=0.5;entryY=0;entryDx=0;entryDy=0;" parent="1" source="iD19RxIG-7md3nA6UZsq-27" target="iD19RxIG-7md3nA6UZsq-16" edge="1">
          <mxGeometry relative="1" as="geometry">
            <Array as="points">
              <mxPoint x="630" y="219" />
              <mxPoint x="630" y="244" />
              <mxPoint x="690" y="244" />
            </Array>
          </mxGeometry>
        </mxCell>
        <mxCell id="iD19RxIG-7md3nA6UZsq-49" style="edgeStyle=orthogonalEdgeStyle;rounded=0;orthogonalLoop=1;jettySize=auto;html=1;" parent="1" source="iD19RxIG-7md3nA6UZsq-27" target="iD19RxIG-7md3nA6UZsq-26" edge="1">
          <mxGeometry relative="1" as="geometry" />
        </mxCell>
        <mxCell id="iD19RxIG-7md3nA6UZsq-27" value="3" style="html=1;dashed=0;whiteSpace=wrap;shape=mxgraph.dfd.dataStoreID;align=left;spacingLeft=3;points=[[0,0],[0.5,0],[1,0],[0,0.5],[1,0.5],[0,1],[0.5,1],[1,1]];" parent="1" vertex="1">
          <mxGeometry x="640" y="204" width="110" height="30" as="geometry" />
        </mxCell>
        <mxCell id="iD19RxIG-7md3nA6UZsq-28" value="question" style="text;html=1;align=center;verticalAlign=middle;whiteSpace=wrap;rounded=0;" parent="1" vertex="1">
          <mxGeometry x="680" y="204" width="60" height="30" as="geometry" />
        </mxCell>
        <mxCell id="iD19RxIG-7md3nA6UZsq-33" style="edgeStyle=orthogonalEdgeStyle;rounded=0;orthogonalLoop=1;jettySize=auto;html=1;endArrow=none;startFill=0;" parent="1" source="iD19RxIG-7md3nA6UZsq-30" edge="1">
          <mxGeometry relative="1" as="geometry">
            <mxPoint x="630" y="224" as="targetPoint" />
            <Array as="points">
              <mxPoint x="630" y="169" />
            </Array>
          </mxGeometry>
        </mxCell>
        <mxCell id="iD19RxIG-7md3nA6UZsq-30" value="4" style="html=1;dashed=0;whiteSpace=wrap;shape=mxgraph.dfd.dataStoreID;align=left;spacingLeft=3;points=[[0,0],[0.5,0],[1,0],[0,0.5],[1,0.5],[0,1],[0.5,1],[1,1]];" parent="1" vertex="1">
          <mxGeometry x="640" y="154" width="110" height="30" as="geometry" />
        </mxCell>
        <mxCell id="iD19RxIG-7md3nA6UZsq-31" value="answer" style="text;html=1;align=center;verticalAlign=middle;whiteSpace=wrap;rounded=0;" parent="1" vertex="1">
          <mxGeometry x="670" y="154" width="60" height="30" as="geometry" />
        </mxCell>
        <mxCell id="iD19RxIG-7md3nA6UZsq-39" style="edgeStyle=orthogonalEdgeStyle;rounded=0;orthogonalLoop=1;jettySize=auto;html=1;endArrow=none;startFill=0;" parent="1" source="iD19RxIG-7md3nA6UZsq-34" edge="1">
          <mxGeometry relative="1" as="geometry">
            <mxPoint x="480" y="219" as="targetPoint" />
            <Array as="points">
              <mxPoint x="480" y="219" />
            </Array>
          </mxGeometry>
        </mxCell>
        <mxCell id="iD19RxIG-7md3nA6UZsq-34" value="6" style="html=1;dashed=0;whiteSpace=wrap;shape=mxgraph.dfd.dataStoreID;align=left;spacingLeft=3;points=[[0,0],[0.5,0],[1,0],[0,0.5],[1,0.5],[0,1],[0.5,1],[1,1]];" parent="1" vertex="1">
          <mxGeometry x="490" y="204" width="110" height="30" as="geometry" />
        </mxCell>
        <mxCell id="iD19RxIG-7md3nA6UZsq-35" value="rating" style="text;html=1;align=center;verticalAlign=middle;whiteSpace=wrap;rounded=0;" parent="1" vertex="1">
          <mxGeometry x="520" y="204" width="60" height="30" as="geometry" />
        </mxCell>
        <mxCell id="iD19RxIG-7md3nA6UZsq-38" style="edgeStyle=orthogonalEdgeStyle;rounded=0;orthogonalLoop=1;jettySize=auto;html=1;entryX=0.5;entryY=0;entryDx=0;entryDy=0;" parent="1" source="iD19RxIG-7md3nA6UZsq-36" target="iD19RxIG-7md3nA6UZsq-9" edge="1">
          <mxGeometry relative="1" as="geometry">
            <Array as="points">
              <mxPoint x="480" y="169" />
              <mxPoint x="480" y="244" />
              <mxPoint x="520" y="244" />
            </Array>
          </mxGeometry>
        </mxCell>
        <mxCell id="iD19RxIG-7md3nA6UZsq-47" style="edgeStyle=orthogonalEdgeStyle;rounded=0;orthogonalLoop=1;jettySize=auto;html=1;exitX=0.5;exitY=0;exitDx=0;exitDy=0;entryX=0.5;entryY=0;entryDx=0;entryDy=0;" parent="1" source="iD19RxIG-7md3nA6UZsq-37" target="iD19RxIG-7md3nA6UZsq-25" edge="1">
          <mxGeometry relative="1" as="geometry">
            <Array as="points">
              <mxPoint x="550" y="134" />
              <mxPoint x="820" y="134" />
            </Array>
          </mxGeometry>
        </mxCell>
        <mxCell id="iD19RxIG-7md3nA6UZsq-36" value="5" style="html=1;dashed=0;whiteSpace=wrap;shape=mxgraph.dfd.dataStoreID;align=left;spacingLeft=3;points=[[0,0],[0.5,0],[1,0],[0,0.5],[1,0.5],[0,1],[0.5,1],[1,1]];" parent="1" vertex="1">
          <mxGeometry x="490" y="154" width="110" height="30" as="geometry" />
        </mxCell>
        <mxCell id="iD19RxIG-7md3nA6UZsq-37" value="comment" style="text;html=1;align=center;verticalAlign=middle;whiteSpace=wrap;rounded=0;" parent="1" vertex="1">
          <mxGeometry x="520" y="154" width="60" height="30" as="geometry" />
        </mxCell>
        <mxCell id="iD19RxIG-7md3nA6UZsq-50" style="edgeStyle=orthogonalEdgeStyle;rounded=0;orthogonalLoop=1;jettySize=auto;html=1;endArrow=none;startFill=0;" parent="1" source="iD19RxIG-7md3nA6UZsq-30" edge="1">
          <mxGeometry relative="1" as="geometry">
            <mxPoint x="1000" y="250" as="targetPoint" />
            <Array as="points">
              <mxPoint x="1000" y="169" />
              <mxPoint x="1000" y="244" />
            </Array>
          </mxGeometry>
        </mxCell>
        <mxCell id="iD19RxIG-7md3nA6UZsq-61" style="edgeStyle=orthogonalEdgeStyle;rounded=0;orthogonalLoop=1;jettySize=auto;html=1;endArrow=none;startFill=0;" parent="1" source="iD19RxIG-7md3nA6UZsq-53" edge="1">
          <mxGeometry relative="1" as="geometry">
            <mxPoint x="760" y="635" as="targetPoint" />
          </mxGeometry>
        </mxCell>
        <mxCell id="iD19RxIG-7md3nA6UZsq-53" value="7" style="html=1;dashed=0;whiteSpace=wrap;shape=mxgraph.dfd.dataStoreID;align=left;spacingLeft=3;points=[[0,0],[0.5,0],[1,0],[0,0.5],[1,0.5],[0,1],[0.5,1],[1,1]];" parent="1" vertex="1">
          <mxGeometry x="780" y="620" width="110" height="30" as="geometry" />
        </mxCell>
        <mxCell id="iD19RxIG-7md3nA6UZsq-54" value="title" style="text;html=1;align=center;verticalAlign=middle;whiteSpace=wrap;rounded=0;" parent="1" vertex="1">
          <mxGeometry x="810" y="620" width="60" height="30" as="geometry" />
        </mxCell>
        <mxCell id="iD19RxIG-7md3nA6UZsq-60" style="edgeStyle=orthogonalEdgeStyle;rounded=0;orthogonalLoop=1;jettySize=auto;html=1;endArrow=none;startFill=0;" parent="1" source="iD19RxIG-7md3nA6UZsq-55" edge="1">
          <mxGeometry relative="1" as="geometry">
            <mxPoint x="760" y="685" as="targetPoint" />
          </mxGeometry>
        </mxCell>
        <mxCell id="iD19RxIG-7md3nA6UZsq-55" value="8" style="html=1;dashed=0;whiteSpace=wrap;shape=mxgraph.dfd.dataStoreID;align=left;spacingLeft=3;points=[[0,0],[0.5,0],[1,0],[0,0.5],[1,0.5],[0,1],[0.5,1],[1,1]];" parent="1" vertex="1">
          <mxGeometry x="780" y="670" width="110" height="30" as="geometry" />
        </mxCell>
        <mxCell id="iD19RxIG-7md3nA6UZsq-56" value="description" style="text;html=1;align=center;verticalAlign=middle;whiteSpace=wrap;rounded=0;" parent="1" vertex="1">
          <mxGeometry x="820" y="670" width="60" height="30" as="geometry" />
        </mxCell>
        <mxCell id="iD19RxIG-7md3nA6UZsq-59" style="edgeStyle=orthogonalEdgeStyle;rounded=0;orthogonalLoop=1;jettySize=auto;html=1;entryX=0.5;entryY=1;entryDx=0;entryDy=0;" parent="1" source="iD19RxIG-7md3nA6UZsq-57" target="iD19RxIG-7md3nA6UZsq-7" edge="1">
          <mxGeometry relative="1" as="geometry">
            <Array as="points">
              <mxPoint x="760" y="735" />
              <mxPoint x="760" y="600" />
              <mxPoint x="820" y="600" />
            </Array>
          </mxGeometry>
        </mxCell>
        <mxCell id="iD19RxIG-7md3nA6UZsq-57" value="9" style="html=1;dashed=0;whiteSpace=wrap;shape=mxgraph.dfd.dataStoreID;align=left;spacingLeft=3;points=[[0,0],[0.5,0],[1,0],[0,0.5],[1,0.5],[0,1],[0.5,1],[1,1]];" parent="1" vertex="1">
          <mxGeometry x="780" y="720" width="110" height="30" as="geometry" />
        </mxCell>
        <mxCell id="iD19RxIG-7md3nA6UZsq-58" value="content" style="text;html=1;align=center;verticalAlign=middle;whiteSpace=wrap;rounded=0;" parent="1" vertex="1">
          <mxGeometry x="810" y="720" width="60" height="30" as="geometry" />
        </mxCell>
        <mxCell id="DcRuyUyVqODYVJJy-fKT-1" style="edgeStyle=orthogonalEdgeStyle;rounded=0;orthogonalLoop=1;jettySize=auto;html=1;entryX=0.574;entryY=1.012;entryDx=0;entryDy=0;entryPerimeter=0;" edge="1" parent="1" source="iD19RxIG-7md3nA6UZsq-23" target="iD19RxIG-7md3nA6UZsq-13">
          <mxGeometry relative="1" as="geometry" />
        </mxCell>
      </root>
    </mxGraphModel>
  </diagram>
</mxfile>
